<svg width="179" height="74" viewBox="0 0 179 74" fill="none" xmlns="http://www.w3.org/2000/svg">
<g id="curveline">
<path id="curve2" d="M0 0.114317C0 0.114317 22.062 17.4303 36.9364 18.9664C59.1594 21.2613 70.9046 -0.782257 93.1999 0.114317C111.874 0.865263 121.363 25.1442 140.015 23.841C154.597 22.8222 171.797 -1.87819 176.092 0.114317C180.387 2.10683 179.528 8.35203 176.092 16.9446C172.656 25.5372 154.319 36.4377 140.015 36.9826C121.521 37.687 111.703 16.8149 93.1999 16.9446C70.7762 17.1018 59.2967 36.1188 36.9364 34.1298C22.0601 32.8065 0 18.9664 0 18.9664V0.114317Z" fill="#FFAC4B"/>
<path id="curve1" d="M0 37.1143C0 37.1143 22.062 54.4303 36.9364 55.9664C59.1594 58.2613 70.9046 36.2177 93.1999 37.1143C111.874 37.8653 121.363 62.1442 140.015 60.841C154.597 59.8222 171.797 35.1218 176.092 37.1143C180.387 39.1068 179.528 45.352 176.092 53.9446C172.656 62.5372 154.319 73.4377 140.015 73.9826C121.521 74.687 111.703 53.8149 93.1999 53.9446C70.7762 54.1018 59.2967 73.1188 36.9364 71.1298C22.0601 69.8065 0 55.9664 0 55.9664V37.1143Z" fill="#FFAC4B"/>
</g>
</svg>
